<svg width="62" height="62" viewBox="0 0 62 62" version="1.1" xmlns="http://www.w3.org/2000/svg" xmlns:xlink="http://www.w3.org/1999/xlink">

<g id="Canvas" transform="translate(-11225 7259)">
<g id="Group">
<g id="Star">
<use xlink:href="#path0_fill" transform="translate(11224 -7260)" fill="#FF0000"/>
</g>
<g id="&#208;&#165;&#208;&#184;&#209;&#130; &#208;&#191;&#209;&#128;&#208;&#190;&#208;&#180;&#208;&#176;&#208;&#182;">
<use xlink:href="#path1_fill" transform="translate(11233.6 -7240.15)" fill="#FFFFFF"/>
<use xlink:href="#path2_fill" transform="translate(11233.6 -7240.15)" fill="#FFFFFF"/>
<use xlink:href="#path3_fill" transform="translate(11233.6 -7240.15)" fill="#FFFFFF"/>
<use xlink:href="#path4_fill" transform="translate(11233.6 -7240.15)" fill="#FFFFFF"/>
<use xlink:href="#path5_fill" transform="translate(11233.6 -7240.15)" fill="#FFFFFF"/>
<use xlink:href="#path6_fill" transform="translate(11233.6 -7240.15)" fill="#FFFFFF"/>
<use xlink:href="#path7_fill" transform="translate(11233.6 -7240.15)" fill="#FFFFFF"/>
<use xlink:href="#path8_fill" transform="translate(11233.6 -7240.15)" fill="#FFFFFF"/>
<use xlink:href="#path9_fill" transform="translate(11233.6 -7240.15)" fill="#FFFFFF"/>
</g>
</g>
</g>
<defs>
<path id="path0_fill" d="M 30.0096 2.24985C 31.0673 1.05434 32.9327 1.05434 33.9904 2.24985C 34.8752 3.25006 36.3649 3.43825 37.4707 2.68952C 38.7924 1.79459 40.5993 2.25852 41.3264 3.6795C 41.9347 4.86833 43.3308 5.42108 44.5881 4.97087C 46.0908 4.43276 47.7256 5.33146 48.0764 6.88862C 48.37 8.19139 49.5847 9.07396 50.9145 8.95057C 52.5038 8.80308 53.8637 10.0801 53.8163 11.6756C 53.7766 13.0104 54.7338 14.1674 56.0524 14.3785C 57.6285 14.6309 58.6281 16.206 58.1854 17.7396C 57.815 19.0226 58.4543 20.3813 59.679 20.9137C 61.1428 21.5502 61.7193 23.3244 60.9091 24.6997C 60.2313 25.8503 60.5127 27.3252 61.5665 28.1455C 62.826 29.126 62.9432 30.9878 61.8164 32.1184C 60.8737 33.0643 60.7795 34.5629 61.5961 35.6195C 62.5723 36.8824 62.2228 38.7149 60.8502 39.5297C 59.7019 40.2115 59.2379 41.6395 59.7662 42.866C 60.3976 44.3321 59.6033 46.02 58.0713 46.4679C 56.7895 46.8427 55.985 48.1105 56.1916 49.4298C 56.4386 51.0068 55.2495 52.4442 53.6542 52.4971C 52.3195 52.5413 51.2249 53.5692 51.097 54.8985C 50.944 56.4873 49.4348 57.5838 47.8764 57.2383C 46.5727 56.9492 45.2569 57.6726 44.8024 58.9283C 44.2591 60.4292 42.5246 61.1159 41.1012 60.3937C 39.9102 59.7895 38.4559 60.1629 37.7034 61.2661C 36.8039 62.5847 34.9531 62.8186 33.754 61.765C 32.7508 60.8836 31.2492 60.8836 30.246 61.765C 29.0469 62.8186 27.1961 62.5847 26.2966 61.2661C 25.5441 60.1629 24.0898 59.7895 22.8988 60.3937C 21.4754 61.1159 19.7409 60.4292 19.1976 58.9283C 18.7431 57.6726 17.4273 56.9492 16.1236 57.2383C 14.5652 57.5838 13.056 56.4873 12.9031 54.8985C 12.7751 53.5692 11.6805 52.5413 10.3458 52.4971C 8.75051 52.4442 7.56141 51.0068 7.8084 49.4298C 8.01505 48.1105 7.21049 46.8427 5.92873 46.4679C 4.39667 46.02 3.60239 44.3321 4.2338 42.866C 4.76206 41.6395 4.29806 40.2115 3.14977 39.5297C 1.77725 38.7149 1.42769 36.8824 2.40385 35.6195C 3.22053 34.5629 3.12625 33.0643 2.18358 32.1184C 1.05683 30.9878 1.17397 29.126 2.43354 28.1455C 3.48733 27.3252 3.76868 25.8503 3.09087 24.6997C 2.28069 23.3244 2.85716 21.5502 4.32099 20.9137C 5.54568 20.3813 6.18499 19.0226 5.81462 17.7396C 5.37192 16.206 6.3715 14.6309 7.94762 14.3785C 9.26625 14.1674 10.2234 13.0104 10.1837 11.6756C 10.1363 10.0801 11.4962 8.80308 13.0855 8.95057C 14.4153 9.07396 15.63 8.19139 15.9236 6.88862C 16.2744 5.33146 17.9092 4.43276 19.4119 4.97088C 20.6692 5.42108 22.0653 4.86833 22.6736 3.6795C 23.4007 2.25852 25.2076 1.79459 26.5293 2.68952C 27.6351 3.43825 29.1248 3.25006 30.0096 2.24985Z"/>
<path id="path1_fill" d="M 0 15.571L 0.069 16.031L 0.483 16.192L 2.898 16.169L 3.588 16.1L 4.117 15.939L 4.623 15.571L 4.807 15.203L 5.06 14.858L 5.267 14.398L 5.934 13.271L 6.141 12.834L 6.44 12.535L 6.877 11.661L 7.13 11.316L 7.406 11.339L 7.682 11.684L 9.982 15.548L 10.419 15.985L 10.971 16.238L 13.616 16.1L 14.076 16.169L 14.536 16.054L 14.605 15.525L 14.329 14.95L 13.823 14.214L 13.616 13.823L 12.811 12.719L 12.65 12.42L 12.351 12.006L 11.914 11.201L 11.224 10.304L 10.166 8.533L 9.89 8.188L 9.752 7.613L 9.867 7.061L 10.189 6.647L 10.649 5.934L 10.879 5.497L 12.512 3.174L 12.719 2.76L 14.053 0.690001L 13.938 0.207L 13.432 0.0460008L 12.696 0.0920002L 11.04 0.0230011L 10.603 0.0690005L 10.051 0.276001L 9.522 0.621L 9.338 1.058L 8.579 2.116L 8.418 2.576L 7.383 4.025L 7.061 4.094L 6.831 3.726L 6.601 3.266L 6.348 2.967L 6.187 2.553L 5.014 0.667001L 4.531 0.276001L 3.979 0.0230011L 3.473 0.0920002L 3.013 0.0920002L 2.484 0.0230011L 1.771 0.115L 1.081 0.0920002L 0.552 0.230001L 0.506 0.736L 0.736 1.242L 1.311 2.001L 1.679 2.668L 2.323 3.565L 2.806 4.393L 3.082 4.738L 3.335 5.175L 3.611 5.52L 4.071 6.302L 4.393 6.716L 4.6 7.061L 4.738 7.682L 4.646 8.188L 4.117 8.947L 3.657 9.775L 3.427 10.051L 3.197 10.465L 2.898 10.764L 2.438 11.592L 2.162 11.937L 1.426 13.156L 0.92 13.846L 0.69 14.283L 0.437 14.605L 0.207 15.042L 0 15.571Z"/>
<path id="path2_fill" d="M 29.373 16.215L 29.879 16.146L 30.362 15.916L 30.569 15.479L 30.523 14.076L 30.592 13.179L 30.546 12.742L 30.569 7.107L 30.523 6.716L 30.523 6.256L 30.569 5.796L 30.569 5.267L 30.523 4.853L 30.523 1.633L 30.569 1.15L 30.569 0.713L 30.27 0.184L 29.81 0L 29.166 0.138001L 28.591 0.414L 24.037 4.968L 23.669 5.244L 21.415 7.498L 21.047 7.613L 20.909 7.291L 20.932 6.808L 20.886 6.371L 20.955 2.208L 20.909 1.656L 20.909 0.782001L 20.702 0.322L 20.173 0.0230011L 19.759 0.0920002L 19.253 0L 18.793 0.0920002L 17.367 0.0460008L 16.907 0.276001L 16.654 0.828L 16.677 12.765L 16.631 13.271L 16.7 13.961L 16.631 15.065L 16.677 15.479L 16.884 16.031L 17.367 16.192L 18.057 16.1L 18.609 15.801L 19 15.456L 19.322 15.042L 20.886 13.547L 21.277 13.271L 21.576 12.88L 22.887 11.661L 24.129 10.304L 24.497 9.982L 24.819 9.637L 25.854 8.763L 26.107 8.602L 26.314 8.924L 26.314 9.407L 26.268 9.867L 26.337 10.603L 26.291 11.339L 26.337 11.753L 26.268 12.213L 26.268 15.502L 26.498 15.962L 26.981 16.123L 27.441 16.169L 29.373 16.215Z"/>
<path id="path3_fill" d="M 38.2948 16.192L 39.8358 16.146L 40.5028 15.916L 40.7328 15.272L 40.8018 14.076L 40.7328 13.202L 40.7788 12.719L 40.7558 11.799L 40.8018 11.385L 40.7328 10.879L 40.7788 7.176L 40.7098 6.693L 40.7788 4.692L 40.9628 4.002L 41.3998 3.726L 42.2968 3.68L 43.1478 3.795L 43.6308 3.726L 44.0448 3.749L 44.4358 3.496L 44.7118 2.99L 44.7348 0.805001L 44.4818 0.345001L 44.0448 0.0460008L 42.6188 0.0460008L 42.1818 0L 41.6988 0.0690005L 41.2618 0.0230011L 39.3988 0.115L 38.9388 0.0230011L 38.5018 0L 38.0188 0.0690005L 37.5128 0.0230011L 37.0988 0.115L 35.7418 0.0460008L 35.0288 0.115L 33.4188 0.0230011L 32.9818 0.253001L 32.7058 0.782001L 32.7288 1.242L 32.6828 2.392L 32.7288 3.105L 32.9358 3.519L 33.3498 3.749L 33.8098 3.703L 35.9948 3.749L 36.4318 3.979L 36.6848 4.439L 36.6388 5.175L 36.6848 5.819L 36.6618 6.325L 36.6848 6.785L 36.6388 7.429L 36.7078 10.856L 36.6618 11.316L 36.6388 13.179L 36.6848 13.662L 36.6618 14.996L 36.6158 15.433L 36.9148 15.939L 37.5818 16.169L 38.2948 16.192Z"/>
<path id="path4_fill" d="M 1.85626 24.876L 1.94626 25.092L 2.11726 25.173L 2.31526 25.146L 2.68426 25.164L 2.85526 25.137L 3.03526 25.137L 3.22426 25.182L 3.39526 25.074L 3.49426 24.876L 3.47626 21.33L 3.49426 21.159L 3.49426 20.952L 3.51226 20.799L 3.49426 20.619L 3.57526 20.43L 3.76426 20.322L 3.94426 20.358L 4.12426 20.349L 4.29526 20.322L 4.65526 20.34L 4.81726 20.331L 5.16826 20.349L 5.34826 20.439L 5.45626 20.7L 5.43826 24.804L 5.54626 25.074L 5.73526 25.146L 5.90626 25.128L 6.17626 25.155L 6.70726 25.137L 7.01326 25.056L 7.10326 24.903L 7.09426 24.525L 7.11226 24.363L 7.09426 24.156L 7.11226 23.796L 7.08526 23.436L 7.11226 23.094L 7.07626 22.284L 7.10326 22.014L 7.08526 21.276L 7.10326 21.114L 7.09426 19.125L 7.02226 18.963L 6.73426 18.873L 6.28426 18.846L 6.08626 18.855L 5.91526 18.837L 4.82626 18.864L 4.65526 18.837L 4.47526 18.864L 4.27726 18.837L 3.38626 18.855L 3.19726 18.873L 3.02626 18.855L 2.49526 18.855L 2.31526 18.873L 2.12626 18.837L 1.95526 18.945L 1.86526 19.125L 1.83826 19.476L 1.86526 19.665L 1.87426 20.016L 1.85626 20.196L 1.84726 20.574L 1.86526 20.763L 1.83826 21.843L 1.85626 22.005L 1.84726 22.725L 1.87426 22.914L 1.84726 24.525L 1.87426 24.714L 1.85626 24.876Z"/>
<path id="path5_fill" d="M 8.98805 25.173L 9.42905 25.155L 9.59105 25.164L 9.79805 25.146L 9.98705 25.074L 10.0681 24.885L 10.0591 24.705L 10.0681 24.507L 10.0501 24.174L 10.0681 24.003L 10.0591 23.796L 10.1401 23.634L 10.3471 23.535L 10.5451 23.517L 10.7341 23.553L 11.6611 23.481L 12.5161 23.139L 12.6511 23.031L 12.7771 22.887L 12.8941 22.77L 13.0111 22.635L 13.2001 22.347L 13.3531 21.996L 13.3801 21.798L 13.4341 21.654L 13.4521 20.916L 13.4161 20.763L 13.3891 20.565L 13.2811 20.232L 13.1101 19.926L 12.8941 19.629L 12.4891 19.278L 12.1921 19.08L 11.8321 18.972L 11.6791 18.909L 11.4991 18.909L 11.3191 18.846L 11.0491 18.837L 10.7611 18.846L 10.5631 18.873L 10.0141 18.864L 9.83405 18.837L 9.27605 18.873L 9.07805 18.864L 8.91605 18.837L 8.72705 18.873L 8.53805 18.972L 8.45706 19.116L 8.46605 20.205L 8.43005 20.565L 8.44805 20.736L 8.43905 23.067L 8.45706 23.238L 8.44805 24.903L 8.54705 25.074L 8.82605 25.164L 8.98805 25.173ZM 10.3381 22.095L 10.1581 21.987L 10.0771 21.834L 10.0501 21.105L 10.0681 20.916L 10.0681 20.547L 10.1581 20.376L 10.3471 20.286L 11.2831 20.313L 11.4631 20.394L 11.6071 20.493L 11.7241 20.61L 11.8141 20.79L 11.8411 20.952L 11.8591 21.204L 11.8411 21.447L 11.7781 21.609L 11.6971 21.753L 11.5801 21.897L 11.4361 22.005L 11.2921 22.05L 11.0131 22.086L 10.5541 22.077L 10.3381 22.095Z"/>
<path id="path6_fill" d="M 17.3149 25.263L 18.1159 25.182L 18.4579 25.074L 19.2589 24.714L 19.8889 24.111L 20.0059 23.949L 20.3569 23.328L 20.4199 23.157L 20.4469 22.977L 20.5009 22.833L 20.5369 22.635L 20.5819 22.005L 20.5369 21.384L 20.4649 21.051L 20.3929 20.862L 20.3479 20.655L 20.1859 20.358L 20.1229 20.196L 20.0059 20.043L 19.8979 19.935L 19.7809 19.773L 19.3939 19.422L 18.9349 19.134L 17.7559 18.765L 17.3329 18.756L 16.7029 18.792L 16.5229 18.828L 16.3429 18.882L 16.1809 18.954L 15.8389 19.044L 15.3799 19.332L 15.2539 19.44L 14.9659 19.638L 14.7229 19.908L 14.4169 20.358L 14.3359 20.511L 14.1649 21.006L 14.0929 21.393L 14.0569 22.437L 14.1559 23.004L 14.2909 23.31L 14.3449 23.499L 14.4349 23.661L 14.8579 24.237L 15.1099 24.48L 15.2269 24.615L 15.8389 24.939L 16.0099 25.011L 16.7749 25.236L 17.3149 25.263ZM 17.0629 23.679L 16.8829 23.616L 16.7209 23.598L 16.4149 23.436L 16.1359 23.193L 16.0459 23.067L 15.9289 22.941L 15.7579 22.437L 15.7129 21.987L 15.7219 21.717L 15.7849 21.384L 15.8389 21.222L 15.9469 21.096L 16.0279 20.943L 16.1449 20.799L 16.2799 20.682L 16.5409 20.502L 16.7029 20.421L 16.8919 20.376L 17.3059 20.34L 17.7379 20.367L 18.2149 20.574L 18.4939 20.781L 18.7009 21.087L 18.7729 21.249L 18.8269 21.429L 18.8899 21.591L 18.9259 21.978L 18.8719 22.428L 18.7909 22.797L 18.6919 22.932L 18.6109 23.067L 18.5029 23.229L 18.2239 23.445L 18.0619 23.517L 17.9179 23.598L 17.7559 23.616L 17.5849 23.661L 17.0629 23.679Z"/>
<path id="path7_fill" d="M 20.9362 25.983L 21.0442 26.154L 21.2782 26.235L 21.8722 26.235L 22.0432 26.253L 22.2142 26.244L 22.3852 26.136L 22.5022 25.956L 22.5022 25.776L 22.4752 25.596L 22.4842 25.425L 22.5832 25.245L 22.7632 25.155L 22.9522 25.128L 23.6632 25.164L 23.8612 25.137L 24.0322 25.164L 25.4902 25.155L 25.6792 25.236L 25.7602 25.434L 25.7872 25.767L 25.7782 25.974L 25.8682 26.145L 26.0302 26.253L 26.1922 26.253L 26.3542 26.217L 26.5522 26.244L 26.7052 26.244L 26.8582 26.226L 27.0382 26.244L 27.2182 26.163L 27.2902 25.974L 27.3082 24.894L 27.2812 24.651L 27.3082 24.021L 27.2272 23.832L 27.0652 23.76L 26.9032 23.769L 26.7502 23.679L 26.6692 23.463L 26.6692 22.761L 26.6512 22.581L 26.6782 21.123L 26.6602 20.943L 26.6782 20.574L 26.6602 20.421L 26.6602 20.223L 26.6872 20.016L 26.6602 19.845L 26.6782 19.665L 26.6602 19.134L 26.5792 18.945L 26.3902 18.846L 26.1112 18.873L 25.6792 18.846L 25.4992 18.864L 25.1212 18.846L 24.9412 18.855L 24.6892 18.828L 24.4912 18.855L 23.8612 18.837L 23.6812 18.864L 23.4922 18.828L 23.3212 18.864L 22.7722 18.873L 22.6012 18.855L 22.4032 18.936L 22.2952 19.116L 22.2502 19.467L 22.2502 19.656L 22.2052 19.827L 22.2052 20.016L 21.9712 21.825L 21.9802 21.96L 21.8092 23.229L 21.6832 23.535L 21.5662 23.643L 21.4312 23.724L 21.2242 23.742L 21.0082 23.85L 20.9632 24.021L 20.9542 24.21L 20.9632 24.372L 20.9452 24.741L 20.9632 25.101L 20.9452 25.425L 20.9632 25.623L 20.9362 25.983ZM 23.5102 23.796L 23.3752 23.742L 23.3572 23.562L 23.4382 23.265L 23.7352 20.538L 23.8252 20.367L 24.1222 20.259L 24.4012 20.25L 24.5722 20.286L 24.7522 20.259L 24.9502 20.376L 25.0312 20.538L 25.0222 22.491L 25.0402 22.653L 25.0402 23.553L 24.9502 23.706L 24.7792 23.778L 24.0502 23.814L 23.6902 23.778L 23.5102 23.796Z"/>
<path id="path8_fill" d="M 32.9817 25.164L 33.3237 25.137L 33.4947 25.155L 33.7737 25.146L 34.0257 25.101L 34.0527 24.885L 33.9897 24.678L 33.8547 24.345L 33.6117 23.877L 33.4857 23.544L 33.3057 23.22L 32.9637 22.401L 32.8737 22.266L 32.7837 22.095L 32.7297 21.897L 32.6487 21.762L 32.5947 21.618L 32.4057 21.285L 32.3427 21.096L 31.7487 19.845L 31.6947 19.665L 31.5957 19.503L 31.5417 19.341L 31.3707 19.026L 31.2177 18.864L 30.9207 18.774L 30.6327 18.873L 30.4707 19.026L 30.3897 19.179L 30.3267 19.359L 30.2457 19.485L 29.8857 20.313L 29.7867 20.448L 29.7417 20.628L 29.6427 20.799L 29.5887 20.961L 28.6707 22.887L 28.6167 23.085L 28.5267 23.22L 28.4637 23.4L 28.3017 23.688L 28.1667 24.048L 28.0677 24.174L 28.0227 24.336L 27.8427 24.696L 27.7887 24.876L 27.8337 25.101L 28.0137 25.155L 28.3647 25.137L 28.5447 25.155L 29.0487 25.137L 29.2557 25.074L 29.4267 24.912L 29.5887 24.615L 29.7597 24.444L 29.9487 24.345L 30.1197 24.372L 30.4977 24.336L 30.6597 24.363L 31.5417 24.354L 31.7037 24.372L 31.9017 24.345L 32.0997 24.444L 32.2707 24.588L 32.3517 24.759L 32.4057 24.921L 32.5857 25.056L 32.7927 25.146L 32.9817 25.164ZM 30.9387 22.923L 30.7587 22.887L 30.5517 22.905L 30.4077 22.842L 30.3987 22.671L 30.8217 21.699L 30.9207 21.618L 31.0467 21.69L 31.4697 22.68L 31.4337 22.842L 31.2987 22.914L 30.9387 22.923Z"/>
<path id="path9_fill" d="M 34.391 24.903L 34.427 25.101L 34.616 25.182L 35.552 25.137L 35.741 25.164L 35.93 25.173L 36.164 25.11L 36.344 24.939L 36.434 24.777L 36.533 24.57L 36.812 24.12L 36.974 23.787L 37.154 23.472L 37.235 23.301L 37.433 22.959L 37.595 22.824L 37.838 22.761L 38.027 22.851L 38.099 23.04L 38.108 24.885L 38.189 25.047L 38.369 25.164L 38.549 25.164L 38.738 25.137L 39.278 25.173L 39.476 25.146L 39.656 25.047L 39.737 24.858L 39.746 24.498L 39.728 24.327L 39.728 24.174L 39.755 23.985L 39.737 23.418L 39.746 23.229L 39.737 23.031L 39.818 22.878L 39.998 22.779L 40.223 22.806L 40.412 22.977L 40.493 23.157L 40.583 23.292L 40.664 23.463L 40.862 23.787L 40.943 23.976L 41.501 24.921L 41.681 25.101L 42.023 25.173L 42.302 25.146L 42.851 25.155L 43.022 25.182L 43.418 25.11L 43.463 24.894L 43.364 24.696L 43.256 24.561L 43.085 24.246L 42.977 24.093L 42.896 23.94L 42.779 23.805L 41.834 22.311L 41.798 22.095L 41.87 21.879L 42.059 21.555L 42.185 21.204L 42.239 21.015L 42.311 20.853L 42.419 20.394L 42.527 20.169L 42.662 20.043L 42.806 19.98L 42.986 19.98L 43.139 19.881L 43.238 19.692L 43.247 19.314L 43.22 19.125L 43.157 18.963L 42.959 18.837L 42.599 18.774L 42.248 18.765L 42.077 18.819L 41.915 18.837L 41.573 18.981L 41.42 19.098L 41.294 19.215L 41.177 19.368L 41.087 19.521L 41.024 19.692L 40.871 20.394L 40.745 20.727L 40.664 20.871L 40.547 21.033L 40.313 21.195L 40.061 21.294L 39.836 21.222L 39.728 21.033L 39.746 20.34L 39.728 20.196L 39.746 19.989L 39.746 19.116L 39.647 18.936L 39.458 18.855L 39.296 18.846L 39.107 18.864L 38.36 18.855L 38.189 18.954L 38.099 19.125L 38.108 19.305L 38.09 19.656L 38.108 19.836L 38.108 20.358L 38.09 20.538L 38.09 20.691L 38.117 20.889L 38.117 21.051L 38.009 21.222L 37.775 21.294L 37.505 21.168L 37.298 21.033L 37.172 20.862L 37.1 20.727L 36.974 20.412L 36.803 19.71L 36.659 19.386L 36.416 19.098L 36.011 18.873L 35.768 18.801L 35.588 18.783L 35.408 18.801L 35.219 18.774L 35.048 18.774L 34.877 18.828L 34.706 18.954L 34.616 19.242L 34.598 19.422L 34.598 19.719L 34.688 19.881L 35.165 20.061L 35.3 20.187L 35.408 20.412L 35.777 21.564L 35.876 21.735L 35.975 21.861L 36.02 22.077L 35.993 22.311L 35.804 22.599L 35.723 22.77L 35.606 22.914L 35.516 23.049L 35.435 23.202L 35.318 23.337L 34.751 24.246L 34.679 24.417L 34.571 24.552L 34.391 24.903Z"/>
</defs>
</svg>
